<svg xmlns="http://www.w3.org/2000/svg" viewBox="0 0 256 257">
  <defs>
    <linearGradient x1="12.518%" y1="12.514%" x2="88.228%" y2="88.228%" id="vite-grad">
      <stop stop-color="#41D1FF" offset="0%"></stop>
      <stop stop-color="#BD34FE" offset="100%"></stop>
    </linearGradient>
    <linearGradient x1="0%" y1="0%" x2="100%" y2="100%" id="vite-grad-2">
      <stop stop-color="#FFEA83" offset="0%"></stop>
      <stop stop-color="#FFDD35" offset="8.333%"></stop>
      <stop stop-color="#FFA800" offset="100%"></stop>
    </linearGradient>
  </defs>
  <path d="M255.153 37.938L134.897 252.976c-2.483 4.404-8.862 4.466-11.445.108L.875 37.958c-2.746-4.593.983-10.362 6.094-9.329l120.235 24.102a6.537 6.537 0 0 0 2.565 0l119.3-23.962c5.09-1.02 8.85 4.659 6.122 9.27Z" fill="url(#vite-grad)"></path>
  <path d="M185.432.063 96.44 17.501a3.27 3.27 0 0 0-2.634 3.014l-5.474 92.456a3.27 3.27 0 0 0 3.997 3.318l24.447-5.776c2.326-.55 4.413 1.507 3.936 3.845l-7.257 35.133c-.5 2.422 1.782 4.5 4.151 3.78l15.082-4.555c2.37-.718 4.652 1.36 4.15 3.783l-11.51 55.742c-.732 3.547 4.137 5.233 5.974 2.297l1.313-2.126 71.615-142.617c1.215-2.415-.88-5.186-3.53-4.672l-25.146 4.823c-2.407.462-4.435-1.868-3.759-4.228l16.415-57.078c.676-2.358-1.35-4.69-3.76-4.228Z" fill="url(#vite-grad-2)"></path>
</svg>

